<svg xmlns="http://www.w3.org/2000/svg" viewBox="0 0 2560 2560">
    <path d="M122 2263 c3 -30 126 -219 587 -903 l582 -865 -540 -3 -541 -2 0 -100 0 -100 996 0 c971 0 998 1 1077 21 45 11 101 27 125 36 l42 16 0 118 0 118 -32 -19 c-40 -23 -122 -53 -208 -76 -49 -14 -103 -18 -220 -18 -136 0 -165 4 -235 25 -249 76 -429 268 -497 529 -39 153 -41 383 -3 531 24 96 96 236 155 302 165 184 400 257 697 216 91 -12 239 -59 301 -95 l42 -25 0 109 0 108 -65 27 c-35 15 -118 40 -184 57 l-120 30 -981 0 -982 0 4 -37z m1124 -233 c-146 -159 -223 -342 -246 -590 -6 -63 -12 -115 -14 -117 -2 -3 -508 742 -514 758 -2 5 176 9 413 9 l417 0 -56 -60z"/>
</svg>