<svg xmlns="http://www.w3.org/2000/svg" viewBox="0 0 3050 3190">
    <path d="M1385 3161 c-135 -25 -213 -46 -318 -87 -530 -204 -904 -647 -1029 -1217 -20 -91 -22 -130 -22 -357 0 -228 2 -266 22 -360 71 -325 223 -612 445 -838 87 -89 210 -190 293 -241 40 -24 63 -31 103 -31 l51 0 0 39 c0 22 -4 42 -9 46 -20 12 -110 173 -149 265 -51 120 -86 232 -114 362 -31 148 -31 409 1 557 74 344 221 622 456 856 234 235 512 383 856 456 150 32 410 33 558 1 124 -27 268 -72 357 -113 37 -16 83 -29 105 -29 36 0 39 2 39 29 0 53 -19 83 -113 179 -238 244 -528 402 -867 474 -141 30 -524 35 -665 9z"/>
</svg>